<?xml version="1.0" encoding="UTF-8"?><svg id="Layer_1" xmlns="http://www.w3.org/2000/svg" viewBox="0 0 4645.92 1126.69"><defs><style>.cls-1{fill:#288635;}.cls-2{fill:#323367;font-family:BuurtCampusArial-Bold, 'BuurtCampus Arial';font-size:912.76px;font-weight:700;}</style></defs><text class="cls-2" transform="translate(61.67 783.06)"><tspan x="0" y="0" xml:space="preserve">  lant</tspan></text><text class="cls-2" transform="translate(2870.77 783.06)"><tspan x="0" y="0">wap</tspan></text><path class="cls-1" d="M2815.02,446.65h-121.46l-109.95-105.76-49.77,193.61-114.11-110.08-.2,.21-49.69-48.5-14.65-14.29,267.86-187.5-22.33,98.22h245.54c-17.85-102.69-111.6-156.26-227.68-156.26-147.32,0-290.19,84.83-316.98,241.09-6.21,35.23-4.99,67.1,2.44,95.25,0,.01,0,.05,.01,.06h121.73l116.77,112.66,49.78-193.66,110.59,106.37,46.26,45.16,14.65,14.29-267.87,187.5,22.33-98.22h-245.53c17.85,102.69,111.6,156.26,227.68,156.26,147.32,0,290.19-84.83,316.98-241.09,6.21-35.23,4.99-67.1-2.44-95.25,.01-.01,.04-.05,.05-.06h0Z"/><path class="cls-1" d="M2888.07,603.78c-22.82-5.02-39.21-7.1-39.21-7.1,0,0,.21,.95,.21,.99,37.47,22.92,69.43,49.57,96.69,81.21,13.89,16.11,24.68,30.99,44.89,60.57-.14-1.98-.26-3.95-.2-6.25,.09-3.09,.16-4.03,.76-10.87,1.9-21.85,7.61-44.59,16.22-66.99-28.29-27.44-82.28-43.39-119.37-51.55Z"/><path class="cls-1" d="M3011.03,659.14c-7.98,21.3-13.23,42.86-15.03,63.56-.58,6.71-.65,7.63-.72,10.58-.16,5.55,.29,9.96,1.51,13.35,.2,.53,.12,1.06-.05,1.58,10.26,14.97,17.48,25.19,24,33.94,2.92-.85,4.99-1.55,4.99-1.55,0,0,27.29-75.3-14.7-121.45Z"/><path class="cls-1" d="M2850.57,604.31c1.66,7.95,6.35,28.58,13.83,52.8,11.17,1.03,22.32,2.82,33.61,5.36,11.74,2.65,23.76,6.27,36.11,10.57-24.12-26.22-51.8-48.87-83.55-68.74Z"/><path class="cls-1" d="M2896.96,667.17c-10.41-2.34-20.67-3.97-30.95-5.01,4.77,14.96,10.65,30.97,17.57,46.28,1.49-.14,2.21-.17,3.87-.33,.69-.06,.69-.05,1.38-.13,19.06-1.79,28.56-2.41,39.64-2.29,10.92,.11,20.85,1.13,30.25,3.26,1.97,.45,3.89,1.01,5.83,1.56-7.83-10.75-14.74-19.58-22.44-28.51-.8-.93-1.64-1.82-2.44-2.74-.57,.27-1.22,.31-1.87,.08-14.1-5.15-27.59-9.18-40.85-12.17Z"/><path class="cls-1" d="M2968.27,715.86c-.53,.25-1.16,.33-1.77,.14-11.64-3.7-24-5.38-38.11-5.52-10.87-.1-20.26,.51-39.15,2.28-.7,.06-.69,.07-1.39,.13-.92,.09-1.28,.1-2.15,.17,8.4,17.77,18.31,34.25,29.87,46.27,33.82,35.17,80.14,29,100.15,24.15-6.96-9.41-14.34-19.83-26.04-37q-.25-.38-.52-.77c-8.75-12.85-14.81-21.38-20.88-29.85Z"/><path class="cls-1" d="M3109.05,663.03s-3.04,1.48-7.76,4.03c-3.22,11.47-5.32,18.32-8.11,25.41-9.86,24.99-25.23,51.96-40.44,69.57,5.19,.45,35.14,2.17,48.48-20.46,14.57-24.72,7.83-78.54,7.83-78.54Z"/><path class="cls-1" d="M3095.29,670.57c-4.86,2.77-10.6,6.37-16.42,10.28,.99,11.9,.66,22.76-.91,33.33,3.97-7.79,7.7-15.68,10.76-23.43,2.28-5.77,4.21-11.96,6.58-20.18Z"/><path class="cls-1" d="M3074.16,684.11c-10.63,7.58-20.98,16.48-26.68,26.14-12.18,20.67-2.19,41.93,1.58,48.67,7.56-8.74,15.19-19.93,22.15-32.04-.25-.5-.4-1.06-.25-1.64,3.33-13.07,4.19-26.32,3.19-41.12Z"/><path class="cls-1" d="M761.46,686.97s-3.18,1.16-8.13,3.22c-4.37,11.08-7.16,17.68-10.66,24.45-12.36,23.86-30.4,49.11-47.33,65.08,5.11,.98,34.74,5.74,50.31-15.41,17.02-23.1,15.81-77.33,15.81-77.33Z"/><path class="cls-1" d="M747,693.06c-5.12,2.26-11.19,5.25-17.38,8.55-.22,11.94-1.67,22.71-4.31,33.06,4.74-7.34,9.26-14.81,13.09-22.21,2.85-5.51,5.41-11.46,8.6-19.4Z"/><path class="cls-1" d="M724.6,704.38c-11.35,6.46-22.55,14.26-29.21,23.28-14.22,19.32-6.45,41.49-3.39,48.57,8.41-7.92,17.15-18.27,25.3-29.61-.2-.52-.29-1.1-.08-1.66,4.64-12.66,6.86-25.76,7.37-40.58Z"/><path class="cls-1" d="M562.75,626.16c13.86,28.99,30.22,56.54,48.5,81.53-2.1-21.53-1.5-41.15,2.05-60.17-21.94-11.08-42.71-18.63-50.55-21.36Z"/><path class="cls-1" d="M625.64,655.69c-4.19,20.23-5.04,41.15-2.91,64.55,14.57,19.72,30.44,37.57,47.43,52.66,8.04-14.21,24.46-49.82,4.98-78.94-10.25-15.33-29.92-28.25-49.5-38.27Z"/><path class="cls-1" d="M556.44,626.78c.04,8.17,1.04,83.71,27,120.65,27.43,39.02,82.61,32.47,82.61,32.47,0,0,.84-1.49,1.01-1.76-18.54-16.15-35.96-35.1-52.14-55.91-1.12-.3-2.09-1.02-2.26-2.23-.04-.26-.07-.51-.1-.77-21.38-27.95-40.41-59.24-56.11-92.44Z"/><path class="cls-1" d="M357.19,91.81H0v51.87H0c41.21,0,74.61,33.4,74.61,74.61v450.78C74.61,710.27,41.21,743.68,0,743.68h0v51.87H270.08v-51.87h0c-41.21,0-74.61-33.4-74.61-74.61v-125.59c0-64.92-1.65-157.1,47.12-225.19,45.32-63.27,141.77-82.38,221.31-48.81-123.95-23.93-49.94,195.27-181.03,242.49-9.95-134.03,46.81-190.58,46.81-190.58-82.94,53.28-67.71,221.52-67.64,222.08-.06,0-.12,0-.18,.01h95.32c124.73,0,225.83-101.11,225.83-225.83h0c0-124.73-101.11-225.84-225.83-225.84Z"/></svg>