<?xml version="1.0" encoding="UTF-8"?><svg id="Layer_1" xmlns="http://www.w3.org/2000/svg" viewBox="0 0 739.08 530.83"><defs><style>.cls-1{fill:#288635;}</style></defs><path class="cls-1" d="M717.05,263h-85.66l-77.54-84.2-35.1,154.14-80.47-87.64-.14,.17-35.04-38.62-10.33-11.38L581.66,46.21l-15.75,78.19h173.17C726.49,42.65,660.38,0,578.51,0c-103.89,0-204.66,67.53-223.55,191.93-4.38,28.04-3.52,53.42,1.72,75.83,0,0,0,.04,0,.05h85.85l82.35,89.69,35.11-154.18,77.99,84.68,32.62,35.95,10.33,11.38-188.92,149.27,15.75-78.19h-173.16c12.59,81.76,78.71,124.4,160.57,124.4,103.89,0,204.66-67.53,223.55-191.93,4.38-28.04,3.52-53.42-1.72-75.83,0,0,.03-.04,.03-.05h0Z"/><path class="cls-1" d="M238.67,0H0V39.12H0c27.53,0,49.85,25.2,49.85,56.28V435.43C49.85,466.51,27.53,491.71,0,491.71h0v39.12H180.47v-39.12h0c-27.53,0-49.85-25.2-49.85-56.28v-94.73c0-48.97-1.1-118.5,31.48-169.86,30.28-47.73,94.73-62.14,147.88-36.82-82.83-18.05-33.37,147.3-120.96,182.91-6.65-101.1,31.28-143.76,31.28-143.76-55.42,40.19-45.24,167.1-45.2,167.51-.04,0-.08,0-.12,0h63.7c83.34,0,150.9-76.27,150.9-170.35h0C389.58,76.27,322.02,0,238.67,0Z"/></svg>