<?xml version="1.0" encoding="utf-8"?>
<!-- Generator: Adobe Illustrator 26.5.0, SVG Export Plug-In . SVG Version: 6.00 Build 0)  -->
<svg version="1.1" id="Laag_1" xmlns="http://www.w3.org/2000/svg" xmlns:xlink="http://www.w3.org/1999/xlink" x="0px" y="0px"
	 viewBox="0 0 288 560" style="enable-background:new 0 0 288 560;" xml:space="preserve">
<style type="text/css">
	.st0{fill:url(#SVGID_1_);}
	.st1{fill:url(#SVGID_00000129181473151732954540000002843104432813892260_);}
	.st2{fill:#FFFF00;}
	.st3{fill:url(#SVGID_00000014601099637043211940000000406607685481154216_);}
	.st4{fill:url(#SVGID_00000134966331120867205340000003015012325260792728_);}
	.st5{fill:url(#SVGID_00000175314454155284339500000008618291326857468351_);}
	
		.st6{fill:url(#SVGID_00000100377897337066931960000013264492103550375605_);stroke:#237D26;stroke-width:0.25;stroke-miterlimit:10;}
	
		.st7{fill:url(#SVGID_00000112625764609119050810000011265189814936938128_);stroke:#237D26;stroke-width:0.25;stroke-miterlimit:10;}
</style>
<radialGradient id="SVGID_1_" cx="-165.105" cy="13.5194" r="28.431" gradientTransform="matrix(0.8613 0.5082 -0.5082 0.8613 382.6173 327.1342)" gradientUnits="userSpaceOnUse">
	<stop  offset="0" style="stop-color:#9FEFFF"/>
	<stop  offset="1" style="stop-color:#0072DF"/>
</radialGradient>
<path class="st0" d="M242.3,264.4c-6.1,10.3-14,11.5-20,8c-6-3.5-8-10.7-1.9-21c6.1-10.3,23.9-16.3,23.9-16.3
	S248.3,254.1,242.3,264.4z"/>
<radialGradient id="SVGID_00000052082288955961011080000004198006092317202826_" cx="-183.1415" cy="-24.9302" r="28.4316" gradientTransform="matrix(0.8613 0.5082 -0.5082 0.8613 382.6173 327.1342)" gradientUnits="userSpaceOnUse">
	<stop  offset="0" style="stop-color:#9FEFFF"/>
	<stop  offset="1" style="stop-color:#0072DF"/>
</radialGradient>
<path style="fill:url(#SVGID_00000052082288955961011080000004198006092317202826_);" d="M246.3,222.1c-6.1,10.3-14,11.5-20,8
	c-6-3.5-8-10.7-1.9-21c6.1-10.3,23.9-16.3,23.9-16.3S252.3,211.8,246.3,222.1z"/>
<circle class="st2" cx="99.2" cy="78.3" r="61.5"/>
<image style="overflow:visible;" width="80" height="27" xlink:href="1C32C659.png"  transform="matrix(1 0 0 1 130 439)">
</image>
<radialGradient id="SVGID_00000130605131526156850320000004159790066076337595_" cx="2354.7903" cy="3575.3535" r="206.5351" gradientTransform="matrix(0.9858 -0.1677 0.1677 0.9858 -2756.833 -2638.8218)" gradientUnits="userSpaceOnUse">
	<stop  offset="0" style="stop-color:#6BBF00"/>
	<stop  offset="0.9818" style="stop-color:#4F9751"/>
</radialGradient>
<path style="fill:url(#SVGID_00000130605131526156850320000004159790066076337595_);" d="M128.8,460c-4.9,0-7.9-4.5-11.1-2.6
	c-3.2,1.9,22.7,14.4,20.5,10.4c-1.1-2,15.2-50.4,15.1-86.2c-0.1-22,0.1-205.4-5.5-205.4c-2.6,0,1.1,176.9,0,199.5
	c-2.2,44.2-7,56.5-10.6,68.8C134.5,454.1,133.7,459.9,128.8,460z"/>
<image style="overflow:visible;" width="81" height="31" xlink:href="1C32C65B.png"  transform="matrix(1 0 0 1 130 452)">
</image>
<radialGradient id="SVGID_00000035528824280468425300000001464839233765652878_" cx="2319.1855" cy="3591.9888" r="112.5179" gradientTransform="matrix(0.9858 -0.1677 0.1677 0.9858 -2756.833 -2638.822)" gradientUnits="userSpaceOnUse">
	<stop  offset="0" style="stop-color:#E6E9ED"/>
	<stop  offset="1" style="stop-color:#99AD08"/>
</radialGradient>
<path style="fill:url(#SVGID_00000035528824280468425300000001464839233765652878_);" d="M133.7,460.4c-1.5,0-3.4,2.1-3.2,3.1
	c0.5,2.4,5.7,5.4,7.4,15.4c0.8,4.9,1.9,13.3,3.3,23.1c2.3,16.3,22.5,43.3,23.6,43.1c4-0.5-20-24.7-19.8-53.9
	c0.1-16.3-4-23.1-6.3-27.1c-0.5-0.9-1.4-2-2.4-2.9C135.2,460.4,134.3,460.4,133.7,460.4z"/>
<radialGradient id="SVGID_00000021109064964826207740000012748544647375923586_" cx="-583.4554" cy="3645.8" r="78.433" gradientTransform="matrix(-0.9858 0.1677 -0.1677 -0.9858 167.745 4179.1738)" gradientUnits="userSpaceOnUse">
	<stop  offset="0" style="stop-color:#E6E9ED"/>
	<stop  offset="1" style="stop-color:#99AD08"/>
</radialGradient>
<path style="fill:url(#SVGID_00000021109064964826207740000012748544647375923586_);" d="M133.1,461.7c2.9-1,1.3,0,5.7-0.1
	c4.1-0.1-4.9-12.6-10.4-3.9c-1.2,1.9-20.2,33.5-10.8,56.5c3.4,8.4,13,21.7,16.2,22.6c3.2,0.8-10.1-12.3-12.8-20.8
	c-5.7-17.9-0.4-28.4,3.7-39.3C128.2,467.3,130.2,462.8,133.1,461.7z"/>
<radialGradient id="SVGID_00000080166961288035446930000006639886585601736891_" cx="170.0621" cy="318.0317" r="116.7891" gradientTransform="matrix(0.832 0.3391 -0.1625 1.2881 57.38 -113.072)" gradientUnits="userSpaceOnUse">
	<stop  offset="0" style="stop-color:#6BBF00"/>
	<stop  offset="0.9818" style="stop-color:#4F9751"/>
</radialGradient>
<path style="fill:url(#SVGID_00000080166961288035446930000006639886585601736891_);stroke:#237D26;stroke-width:0.25;stroke-miterlimit:10;" d="
	M153.3,310.8c0-6.2-0.7-19.3-1.1-24.3c-0.4-5-0.6-18-6-33.5c-1.8-5-6.8-23-10.5-32.8c-2.7-7.3-8.7-22.4-10.5-26.5
	c-1.9-4-6.1-12.3-7.3-15.9c-1.2-3.5-4.4-12.7-4.8-14.7c-0.4-2,0.6,5.5,0.2,14c-0.4,8.5,5.2,28.3,5.6,34.8c0.4,6.5,8,40.5,9,48.6
	c2,14.7,7.9,52.8,13.5,63.5c5.6,10.7,5.8,33.6,8.9,34.1c2.8,0.5-2.6-11.9-1.9-16c0.6-4.1,4-8.2,4.9-12.3
	C155.2,321.2,153.2,317,153.3,310.8z"/>
<radialGradient id="SVGID_00000006702495964408297010000006680840641762188965_" cx="176.196" cy="287.6754" r="102.0646" gradientTransform="matrix(-0.8668 -0.2202 -0.1308 2.0652 341.3223 -198.0575)" gradientUnits="userSpaceOnUse">
	<stop  offset="0" style="stop-color:#6BBF00"/>
	<stop  offset="0.9818" style="stop-color:#4F9751"/>
</radialGradient>
<path style="fill:url(#SVGID_00000006702495964408297010000006680840641762188965_);stroke:#237D26;stroke-width:0.25;stroke-miterlimit:10;" d="
	M154.4,273.2c1.5-6.7,4.4-25.4,12.7-43.1c2.7-5.7,11.1-27.3,16.6-38.4c4.1-8.2,12.7-24.9,15.3-29.2c2.6-4.2,8.2-12.6,10-16.7
	c1.8-4.1,6.7-14.6,7.5-17.1c0.8-2.5-1.7,7.3-3.2,19.9c-1.4,12.6-6.9,36.2-8.6,45.2c-1.7,9.1-11.5,54-14.2,64.7
	c-4.9,19.4-21.4,53.8-28.8,64.6c-7.4,10.7-7.8,30.4-9.7,35.9c-1.5,4.6-4.7-1.1-4.4-7.5C147.8,345.3,153,280,154.4,273.2z"/>
</svg>
