<?xml version="1.0" encoding="utf-8"?>
<!-- Generator: Adobe Illustrator 26.5.0, SVG Export Plug-In . SVG Version: 6.00 Build 0)  -->
<svg version="1.1" id="Laag_1" xmlns="http://www.w3.org/2000/svg" xmlns:xlink="http://www.w3.org/1999/xlink" x="0px" y="0px"
	 viewBox="0 0 288 560" style="enable-background:new 0 0 288 560;" xml:space="preserve">
<style type="text/css">
	.st0{fill:url(#SVGID_1_);}
	.st1{fill:url(#SVGID_00000061452485916921370910000016409368397826264747_);}
	.st2{fill:#FFFF00;}
	
		.st3{fill:url(#SVGID_00000041288466975576658390000011136913145648772244_);stroke:#237D26;stroke-width:0.25;stroke-miterlimit:10;}
	
		.st4{fill:url(#SVGID_00000174598282926439958030000007911947749146808210_);stroke:#237D26;stroke-width:0.25;stroke-miterlimit:10;}
	
		.st5{fill:url(#SVGID_00000092445305074496393390000014905400817308957343_);stroke:#237D26;stroke-width:0.25;stroke-miterlimit:10;}
	
		.st6{fill:url(#SVGID_00000076573102501470449980000017167361675339909768_);stroke:#237D26;stroke-width:0.25;stroke-miterlimit:10;}
	
		.st7{fill:url(#SVGID_00000042016637035727701190000000659763347181351864_);stroke:#237D26;stroke-width:0.25;stroke-miterlimit:10;}
	
		.st8{fill:url(#SVGID_00000107556451553739659180000013589472489782648488_);stroke:#237D26;stroke-width:0.25;stroke-miterlimit:10;}
	.st9{fill:#BEAC83;}
	
		.st10{fill:url(#SVGID_00000007414848340918441320000015829814820226984093_);stroke:#237D26;stroke-width:0.25;stroke-miterlimit:10;}
	
		.st11{fill:url(#SVGID_00000137835484474565569290000018344426910046095035_);stroke:#237D26;stroke-width:0.25;stroke-miterlimit:10;}
	
		.st12{fill:url(#SVGID_00000136391367077047240800000003615370330922355887_);stroke:#237D26;stroke-width:0.25;stroke-miterlimit:10;}
	
		.st13{fill:url(#SVGID_00000015347952478621847610000000041136636697220283_);stroke:#237D26;stroke-width:0.25;stroke-miterlimit:10;}
</style>
<radialGradient id="SVGID_1_" cx="-207.8062" cy="-18.8011" r="22.0593" gradientTransform="matrix(0.8613 0.5082 -0.5082 0.8613 382.6173 327.1342)" gradientUnits="userSpaceOnUse">
	<stop  offset="0" style="stop-color:#9FEFFF"/>
	<stop  offset="1" style="stop-color:#0072DF"/>
</radialGradient>
<path class="st0" d="M220,212.7c-4.7,8-10.9,9-15.5,6.2c-4.7-2.7-6.2-8.3-1.5-16.3c4.7-8,18.6-12.6,18.6-12.6S224.7,204.7,220,212.7
	z"/>
<radialGradient id="SVGID_00000096059578531345636560000007873407352493325723_" cx="-221.8006" cy="-48.6338" r="22.0598" gradientTransform="matrix(0.8613 0.5082 -0.5082 0.8613 382.6173 327.1342)" gradientUnits="userSpaceOnUse">
	<stop  offset="0" style="stop-color:#9FEFFF"/>
	<stop  offset="1" style="stop-color:#0072DF"/>
</radialGradient>
<path style="fill:url(#SVGID_00000096059578531345636560000007873407352493325723_);" d="M223.1,179.9c-4.7,8-10.9,9-15.5,6.2
	c-4.7-2.7-6.2-8.3-1.5-16.3c4.7-8,18.6-12.6,18.6-12.6S227.8,171.9,223.1,179.9z"/>
<circle class="st2" cx="78.8" cy="69.6" r="47.7"/>
<radialGradient id="SVGID_00000004521877184691126500000003580947701840300435_" cx="-882.6671" cy="-798.7698" r="47.8669" gradientTransform="matrix(-1.1218 -1.3861 -0.6295 0.6652 -1333.4019 -481.239)" gradientUnits="userSpaceOnUse">
	<stop  offset="0" style="stop-color:#6BBF00"/>
	<stop  offset="0.9818" style="stop-color:#12491D"/>
</radialGradient>
<path style="fill:url(#SVGID_00000004521877184691126500000003580947701840300435_);stroke:#237D26;stroke-width:0.25;stroke-miterlimit:10;" d="
	M168.3,225.8c5,6.2,1.5,12-1.1,17c-3.5,6.9-3.9,11.7-4.1,12.5c-0.6,2.9-1.4,7.9-1.8,12.8c-0.2,1.9,0.3-7.4-1.4-14
	c-3.4-13.4-11.3-38.8-10.8-46.7C149.2,206.6,165.3,222,168.3,225.8z"/>
<radialGradient id="SVGID_00000034781971477477400360000000944071841945785275_" cx="-889.1507" cy="-798.4143" r="77.0427" gradientTransform="matrix(-1.1218 -1.3861 -0.6295 0.6652 -1333.4019 -481.239)" gradientUnits="userSpaceOnUse">
	<stop  offset="0" style="stop-color:#6BBF00"/>
	<stop  offset="0.9818" style="stop-color:#4F9751"/>
</radialGradient>
<path style="fill:url(#SVGID_00000034781971477477400360000000944071841945785275_);stroke:#237D26;stroke-width:0.25;stroke-miterlimit:10;" d="
	M149.1,194.2c2.2,2.2,12.6,18.4,17.4,26.8c5.1,9.1,4.4,10.5,4.3,10.8c0,0-2.1-5-7.8-10.9c-27.4-28.1-27.1-25-53.6-44
	c-4.9-3.6-43-29.9-43-29.9s19.7,6.8,40.9,17.6C121.5,171.8,141.8,186.6,149.1,194.2z"/>
<radialGradient id="SVGID_00000106838046572279738890000002646086119739111860_" cx="-992.6841" cy="-724.7732" r="35.9022" gradientTransform="matrix(-1.3178 -1.2013 -0.5221 0.7524 -1531.8181 -262.7311)" gradientUnits="userSpaceOnUse">
	<stop  offset="0" style="stop-color:#6BBF00"/>
	<stop  offset="0.9818" style="stop-color:#12491D"/>
</radialGradient>
<path style="fill:url(#SVGID_00000106838046572279738890000002646086119739111860_);stroke:#237D26;stroke-width:0.25;stroke-miterlimit:10;" d="
	M162.9,394.5c4.4,4,2.4,8.7,1.1,12.7c-1.8,5.5-1.6,9.1-1.6,9.7c-0.1,2.2-0.1,6,0.1,9.7c0.1,1.4-0.6-5.5-2.6-10.2
	c-4.1-9.5-12.7-27.5-13.3-33.4C146.5,382.5,160.2,392.1,162.9,394.5z"/>
<radialGradient id="SVGID_00000050621022846428141660000005522037619407830450_" cx="-997.5461" cy="-724.5051" r="57.7825" gradientTransform="matrix(-1.3178 -1.2013 -0.5221 0.7524 -1531.8181 -262.7311)" gradientUnits="userSpaceOnUse">
	<stop  offset="0" style="stop-color:#6BBF00"/>
	<stop  offset="0.9818" style="stop-color:#4F9751"/>
</radialGradient>
<path style="fill:url(#SVGID_00000050621022846428141660000005522037619407830450_);stroke:#237D26;stroke-width:0.25;stroke-miterlimit:10;" d="
	M145.1,373.3c1.9,1.4,11.5,12.2,15.9,17.9c4.8,6.2,4.4,7.3,4.4,7.5c0,0-2.1-3.5-7-7.2c-23.5-17.7-22.9-15.4-44.7-26.6
	c-4.1-2.1-35.2-17.3-35.2-17.3s15.3,2.8,32.3,8.4C122.1,359.8,138.8,368.5,145.1,373.3z"/>
<image style="overflow:visible;" width="5" height="263" xlink:href="D6411AA0.png"  transform="matrix(1 0 0 1 161 206)">
</image>
<radialGradient id="SVGID_00000026863168106163849650000000238635256565379461_" cx="171.1151" cy="262.0607" r="3.2483" gradientTransform="matrix(0.9173 0 0 1 5.3791 0)" gradientUnits="userSpaceOnUse">
	<stop  offset="0" style="stop-color:#6BBF00"/>
	<stop  offset="0.9818" style="stop-color:#12491D"/>
</radialGradient>
<path style="fill:url(#SVGID_00000026863168106163849650000000238635256565379461_);stroke:#237D26;stroke-width:0.25;stroke-miterlimit:10;" d="
	M165.6,263.1c0-0.5-4.6-0.3-4.7,0.1c-0.1,0.3-0.6-1.6-0.1-2.2c0.5-0.6,4.8-0.2,4.8,0C165.6,261.3,165.6,263.7,165.6,263.1z"/>
<radialGradient id="SVGID_00000115495895561277998260000017198041064625441429_" cx="171.0531" cy="423.1809" r="3.2484" gradientTransform="matrix(0.9173 0 0 1 5.3791 0)" gradientUnits="userSpaceOnUse">
	<stop  offset="0" style="stop-color:#6BBF00"/>
	<stop  offset="0.9818" style="stop-color:#12491D"/>
</radialGradient>
<path style="fill:url(#SVGID_00000115495895561277998260000017198041064625441429_);stroke:#237D26;stroke-width:0.25;stroke-miterlimit:10;" d="
	M165.5,424.3c0-0.5-4.6-0.3-4.7,0.1c-0.1,0.3-0.6-1.6-0.1-2.2c0.5-0.6,4.8-0.2,4.8,0C165.6,422.4,165.6,424.8,165.5,424.3z"/>
<path class="st9" d="M184.5,479.4c-2.4-1-7.2-2.9-9-4.7c-2.4-2.5-5.8-5.5-7.3-7.1c-2.9-3-5.9-1-3.7,0.5c6.5,4.6,9,8.4,13.6,11
	c5.2,2.8,12.5,4,16.6,8.5c3.6,3.9,2.6,9.2,2.9,13c0.4,4.8,3.1,9,9,11.5c2.5,1-8.6-3.5-7.6-14.2c0.3-2.9-0.3-9.2-3-11.4
	C191.2,482.4,189.7,481.5,184.5,479.4z"/>
<path class="st9" d="M182.3,488.6c0.3-1.2,0.6-2.5,0.4-4c-0.2-1.9-1.6-3.2-2.4-4.1c-0.8-0.7-0.3-2.8,0.4-2c2,1.9,3.7,4.7,3.2,8.8
	c-0.4,3-1.9,6-1.4,9.4c0.4,3,2.5,4.9,3.7,6.7c1.5,2.2,2.3,5,1.6,8.1c-0.3,1.3,0.9-5-3.5-8.3c-1.7-1.2-2.3-2.8-2.9-5.7
	C180.7,494.5,181.7,491.3,182.3,488.6z"/>
<path class="st9" d="M174.4,487.1c-1.6-2-5-5.9-5.7-8.4c-1-3.3-2.5-7.5-3.1-9.7c-1.1-4-4.7-3.7-3.5-1.3c3.6,7.1,4,11.7,6.9,16.1
	c3.3,5,9.1,9.4,10.7,15.3c1.4,5.2-2,9.3-3.6,12.9c-1.9,4.4-1.5,9.4,2.5,14.4c1.7,2.1-5.9-7.2,0-16.1c1.6-2.4,4.1-8.3,2.7-11.5
	C178.8,493,178,491.4,174.4,487.1z"/>
<path class="st9" d="M168.6,494.6c0.8-0.9,1.7-2,2.2-3.3c0.7-1.8,0.1-3.6-0.2-4.7c-0.3-1,1-2.6,1.3-1.6c0.8,2.6,1.1,5.9-1.3,9.2
	c-1.8,2.5-4.5,4.5-5.7,7.7c-1,2.8-0.1,5.5,0.1,7.7c0.3,2.7-0.4,5.5-2.4,7.9c-0.9,1,3.2-4,0.8-8.9c-0.9-1.9-0.8-3.5,0.1-6.4
	C164.5,499,166.8,496.7,168.6,494.6z"/>
<path class="st9" d="M151.1,487.1c1.6-2,5-5.9,5.7-8.4c1-3.3,2.5-7.5,3.1-9.7c1.1-4,4.7-3.7,3.5-1.3c-3.6,7.1-4,11.7-6.9,16.1
	c-3.3,5-9.1,9.4-10.7,15.3c-1.4,5.2,2,9.3,3.6,12.9c1.9,4.4,1.5,9.4-2.5,14.4c-1.7,2.1,5.9-7.2,0-16.1c-1.6-2.4-4.1-8.3-2.7-11.5
	C146.7,493,147.5,491.4,151.1,487.1z"/>
<path class="st9" d="M156.9,494.6c-0.8-0.9-1.7-2-2.2-3.3c-0.7-1.8-0.1-3.6,0.2-4.7c0.3-1-1-2.6-1.3-1.6c-0.8,2.6-1.1,5.9,1.3,9.2
	c1.8,2.5,4.5,4.5,5.7,7.7c1,2.8,0.1,5.5-0.1,7.7c-0.3,2.7,0.4,5.5,2.4,7.9c0.9,1-3.2-4-0.8-8.9c0.9-1.9,0.8-3.5-0.1-6.4
	C161,499,158.7,496.7,156.9,494.6z"/>
<path class="st9" d="M141.7,479.2c2.4-1,7.2-2.9,9-4.7c2.4-2.5,5.8-5.5,7.3-7.1c2.5-2.6,5.5-0.7,3.7,0.5c-6.5,4.6-9,8.4-13.6,11
	c-5.2,2.8-12.5,4-16.6,8.5c-3.6,3.9-2.6,9.2-2.9,13c-0.4,4.8-3.1,9-9,11.5c-2.5,1,8.6-3.5,7.6-14.2c-0.3-2.9,0.3-9.2,3-11.4
	C135,482.3,136.5,481.3,141.7,479.2z"/>
<path class="st9" d="M144.3,488.2c-0.3-1.2-0.6-2.5-0.4-4c0.2-1.9,1.6-3.2,2.4-4.1c0.8-0.7,0.3-2.8-0.4-2c-2,1.9-3.7,4.7-3.2,8.8
	c0.4,3,1.9,6,1.4,9.4c-0.4,3-2.5,4.9-3.7,6.7c-1.5,2.2-2.3,5-1.6,8.1c0.3,1.3-0.9-5,3.5-8.3c1.7-1.2,2.3-2.8,2.9-5.7
	C145.8,494,144.9,490.9,144.3,488.2z"/>
<path class="st9" d="M166.2,485.4c-0.8-1.7-2.6-5.2-2.3-7.1c0.4-2.5,0.5-5.7,0.7-7.3c0.5-3-3.1-3.6-2.9-1.7
	c0.8,5.7-0.7,8.9,0.4,12.6c1.2,4.2,5.2,8.6,4.4,13c-0.7,3.9-5.6,5.9-8.4,7.9c-3.5,2.6-5.1,6.1-3.1,10.4c0.8,1.8-3-6.3,6.3-11
	c2.5-1.3,7.2-4.7,7.1-7.2C168.2,490.5,168,489.2,166.2,485.4z"/>
<path class="st9" d="M170.5,502.7c0.2-0.9,0.3-1.9,0.2-2.9c-0.2-1.4-1.1-2.4-1.6-3.1c-0.5-0.5-0.3-2.1,0.2-1.5
	c1.3,1.4,2.5,3.5,2.2,6.5c-0.2,2.2-1.1,4.4-0.7,7c0.3,2.2,1.7,3.7,2.5,5c1,1.7,1.6,3.8,1.2,6c-0.2,1,0.5-3.7-2.4-6.2
	c-1.1-0.9-1.6-2.1-2-4.2C169.6,507,170.2,504.7,170.5,502.7z"/>
<path class="st9" d="M179.8,480c-2.1-0.9-6.4-2.9-7.7-4.7c-1.7-2.5-4.2-5.4-5.3-7c-2.1-3-5.6-1.1-3.8,0.5c5.3,4.5,6.6,8.3,10.5,10.8
	c4.4,2.8,11.3,4,14.2,8.4c2.5,3.9,0.1,9-0.7,12.8c-0.9,4.7,0.6,8.9,5.8,11.3c2.2,1-7.6-3.5-3.7-14c1.1-2.8,2.2-9.1,0.1-11.3
	C185.6,483.1,184.4,482.1,179.8,480z"/>
<path class="st9" d="M191.5,494c0.7-0.9,1.4-1.8,1.8-3c0.6-1.6,0.1-3.3-0.2-4.3c-0.3-0.9,0.8-2.4,1.1-1.5c0.7,2.4,0.9,5.4-1,8.5
	c-1.4,2.3-3.6,4.1-4.5,7c-0.8,2.6-0.1,5,0.1,7c0.2,2.5-0.3,5-1.9,7.3c-0.7,0.9,2.5-3.7,0.7-8.2c-0.7-1.7-0.6-3.2,0.1-5.9
	C188.2,498,190.1,495.9,191.5,494z"/>
<path class="st9" d="M152.8,487.3c0.6-1.5,2-4.6,2.1-6.6c0.2-2.7,0.7-6.1,0.8-7.8c0.3-3.3,2-2.8,1.6-0.9c-1.2,5.7-1.1,9.4-2.2,12.9
	c-1.2,3.9-3.7,7.3-4,12.1c-0.3,4.2,1.6,7.8,2.6,10.9c1.2,3.8,1.4,7.9-0.2,11.7c-0.7,1.6,2.3-5.6-1.1-13.3c-0.9-2.1-2.5-7.1-2.1-9.7
	C151.1,491.9,151.4,490.6,152.8,487.3z"/>
<path class="st9" d="M170.9,479.6c-0.7-0.9-1.4-1.8-1.8-3c-0.6-1.6-0.1-3.3,0.2-4.3c0.3-0.9-0.8-2.4-1.1-1.5c-0.7,2.4-0.9,5.4,1,8.5
	c1.4,2.3,3.6,4.1,4.5,7c0.8,2.6,0.1,5-0.1,7c-0.2,2.5,0.3,5,1.9,7.3c0.7,0.9-2.5-3.7-0.7-8.2c0.7-1.7,0.6-3.2-0.1-5.9
	C174.1,483.6,172.3,481.5,170.9,479.6z"/>
<path class="st9" d="M140.5,488.6c1.6-1.3,5-3.8,6-5.8c1.4-2.7,3.4-5.9,4.3-7.6c1.6-3.2,4.4-2,3-0.2c-4.2,5.2-5.3,9.1-8.4,12.2
	c-3.5,3.5-8.9,5.8-11.2,10.6c-2,4.2-0.1,8.7,0.4,12.2c0.6,4.3-0.6,8.6-4.7,11.9c-1.7,1.4,6-4.7,3-14.1c-0.8-2.5-1.7-8.3,0-10.8
	C135.9,492.6,136.9,491.4,140.5,488.6z"/>
<path class="st9" d="M162.6,478.7c-0.2-1.1-0.5-2.3-0.3-3.6c0.2-1.8,1.3-3,1.9-3.7c0.6-0.7,0.3-2.5-0.3-1.9c-1.6,1.7-3,4.3-2.6,8
	c0.3,2.8,1.5,5.5,1.1,8.6c-0.3,2.7-2,4.5-2.9,6.2c-1.2,2.1-1.8,4.6-1.3,7.5c0.2,1.2-0.7-4.6,2.8-7.6c1.3-1.1,1.9-2.5,2.3-5.2
	C163.8,484,163.1,481.1,162.6,478.7z"/>
<radialGradient id="SVGID_00000072241649113396363260000016335796466108145582_" cx="172.9922" cy="216.4184" r="62.285" gradientTransform="matrix(-0.8668 -0.2202 -0.1308 2.0652 341.3223 -198.0575)" gradientUnits="userSpaceOnUse">
	<stop  offset="0" style="stop-color:#6BBF00"/>
	<stop  offset="0.9818" style="stop-color:#4F9751"/>
</radialGradient>
<path style="fill:url(#SVGID_00000072241649113396363260000016335796466108145582_);stroke:#237D26;stroke-width:0.25;stroke-miterlimit:10;" d="
	M165.3,160.3c0.9-4.1,2.7-15.4,7.7-26.2c1.6-3.5,6.8-16.6,10.1-23.3c2.5-5,7.8-15.2,9.3-17.7c1.6-2.6,5-7.7,6.1-10.1
	c1.1-2.5,4.1-8.9,4.6-10.4c0.5-1.5-1.1,4.5-1.9,12.1c-0.9,7.6-4.2,22-5.3,27.5c-1.1,5.5-7,32.8-8.6,39.4c-3,11.8-13,32.7-17.6,39.3
	c-4.5,6.5-3.4,18.4-4.5,21.8c-0.9,2.8-4.2-2.6-4.1-6.4C161.2,202.2,164.4,164.4,165.3,160.3z"/>
<radialGradient id="SVGID_00000127738881959505461500000006847855072318314390_" cx="-506.6144" cy="141.6204" r="47.8664" gradientTransform="matrix(1.0831 -1.4165 0.6476 0.6476 622.5358 -516.8504)" gradientUnits="userSpaceOnUse">
	<stop  offset="0" style="stop-color:#6BBF00"/>
	<stop  offset="0.9818" style="stop-color:#12491D"/>
</radialGradient>
<path style="fill:url(#SVGID_00000127738881959505461500000006847855072318314390_);stroke:#237D26;stroke-width:0.25;stroke-miterlimit:10;" d="
	M157.2,307.6c-4.9,6.3-1.1,12,1.6,17c3.7,6.8,4.2,11.5,4.4,12.4c0.7,2.9,1.6,7.9,2.2,12.7c0.2,1.9-0.5-7.4,1-14.1
	c3.1-13.5,10.2-39.1,9.5-47C175.8,287.9,160.2,303.8,157.2,307.6z"/>
<radialGradient id="SVGID_00000152975877336216290620000012707754894758593183_" cx="-513.098" cy="141.9775" r="77.045" gradientTransform="matrix(1.0831 -1.4165 0.6476 0.6476 622.5358 -516.8504)" gradientUnits="userSpaceOnUse">
	<stop  offset="0" style="stop-color:#6BBF00"/>
	<stop  offset="0.9818" style="stop-color:#4F9751"/>
</radialGradient>
<path style="fill:url(#SVGID_00000152975877336216290620000012707754894758593183_);stroke:#237D26;stroke-width:0.25;stroke-miterlimit:10;" d="
	M175.5,275.5c-2.1,2.3-12.1,18.7-16.6,27.3c-4.9,9.2-4.1,10.6-4,10.9c0,0,2-5.1,7.5-11.1c26.6-28.8,26.4-25.7,52.4-45.5
	c4.8-3.7,42.1-31.1,42.1-31.1s-19.5,7.3-40.4,18.7C202.6,252.4,182.6,267.7,175.5,275.5z"/>
<radialGradient id="SVGID_00000000212065715640053610000010928902031795608201_" cx="171.1146" cy="349.0069" r="3.2485" gradientTransform="matrix(0.9173 0 0 1 5.3791 0)" gradientUnits="userSpaceOnUse">
	<stop  offset="0" style="stop-color:#6BBF00"/>
	<stop  offset="0.9818" style="stop-color:#12491D"/>
</radialGradient>
<path style="fill:url(#SVGID_00000000212065715640053610000010928902031795608201_);stroke:#237D26;stroke-width:0.25;stroke-miterlimit:10;" d="
	M165.6,350.1c0-0.5-4.6-0.3-4.7,0.1c-0.1,0.3-0.6-1.6-0.1-2.2c0.5-0.6,4.8-0.2,4.8,0C165.6,348.2,165.6,350.6,165.6,350.1z"/>
</svg>
